<?xml version="1.0" encoding="iso-8859-1"?>
<!-- Generator: Adobe Illustrator 19.0.0, SVG Export Plug-In . SVG Version: 6.00 Build 0)  -->
<svg version="1.1" id="Capa_1" xmlns="http://www.w3.org/2000/svg" xmlns:xlink="http://www.w3.org/1999/xlink" x="0px" y="0px"
	 viewBox="0 0 512 512" style="enable-background:new 0 0 512 512;" xml:space="preserve">
<g>
	<path style="fill:#FD6F71;" d="M37.05,216.343C37.05,97.051,135.271,0,256,0c120.73,0,218.95,97.051,218.95,216.343H37.05z"/>
	<path style="fill:#FD6F71;" d="M47.203,235.334v34.402c-8.291,41.188,28.161,57.106,23.733,88.105
		c-5.958,41.705,25.321,62.557,25.321,62.557h319.488c0,0,31.278-20.852,25.321-62.557c-4.429-30.999,32.023-46.918,23.733-88.105
		v-34.402L47.203,235.334L47.203,235.334z"/>
</g>
<path style="fill:#FBC4AC;" d="M391.726,512h51.572c15.639-113.198-71.797-145.575-71.797-145.575H140.498
	c0,0-87.437,32.377-71.797,145.575h51.572l36.957-36.957l98.77,18.339l96.814-18.697L391.726,512z"/>
<g>
	<circle style="fill:#E3B098;" cx="64.974" cy="235.335" r="38.726"/>
	<circle style="fill:#E3B098;" cx="447.026" cy="235.335" r="38.726"/>
	<path style="fill:#E3B098;" d="M399.541,383.618c-15.06-12.38-28.039-17.193-28.039-17.193H140.498c0,0-12.978,4.813-28.039,17.193
		c40.056,33.678,90.375,52.047,143.541,52.047S359.485,417.295,399.541,383.618z"/>
</g>
<path style="fill:#FBC4AC;" d="M333.079,91.229C216.226,193.918,79.181,196.597,66.017,196.613c-0.684,6.485-1.04,13.067-1.04,19.73
	c0,104.06,85.524,188.416,191.022,188.416s191.022-84.356,191.022-188.416c0-6.845-0.38-13.601-1.101-20.257
	C364.086,157.651,333.079,91.229,333.079,91.229z"/>
<path style="fill:#3A484A;" d="M366.218,264.091c-4.267,0-7.726-3.459-7.726-7.726v-21.431c0-4.267,3.459-7.726,7.726-7.726
	s7.726,3.459,7.726,7.726v21.431C373.944,260.632,370.485,264.091,366.218,264.091z"/>
<path style="fill:#F98084;" d="M380.813,295.591h-29.188c-4.267,0-7.726-3.459-7.726-7.726c0-4.267,3.459-7.726,7.726-7.726h29.188
	c4.267,0,7.726,3.459,7.726,7.726C388.539,292.132,385.08,295.591,380.813,295.591z"/>
<path style="fill:#3A484A;" d="M145.782,264.091c-4.267,0-7.726-3.459-7.726-7.726v-21.431c0-4.267,3.459-7.726,7.726-7.726
	c4.267,0,7.726,3.459,7.726,7.726v21.431C153.508,260.632,150.049,264.091,145.782,264.091z"/>
<path style="fill:#F98084;" d="M160.377,295.591h-29.188c-4.267,0-7.726-3.459-7.726-7.726c0-4.267,3.459-7.726,7.726-7.726h29.188
	c4.267,0,7.726,3.459,7.726,7.726C168.103,292.132,164.644,295.591,160.377,295.591z"/>
<path style="fill:#3A484A;" d="M256,294.38c-9.913,0-19.218-4.142-25.531-11.364c-2.808-3.213-2.481-8.094,0.732-10.902
	c3.211-2.808,8.093-2.481,10.902,0.732c3.377,3.864,8.442,6.08,13.896,6.08c5.454,0,10.518-2.216,13.897-6.08
	c2.808-3.213,7.689-3.541,10.902-0.732s3.541,7.689,0.731,10.902C275.218,290.238,265.912,294.38,256,294.38z"/>
<path style="fill:#B6A4FF;" d="M391.726,512c26.252-78.569-65.35-101.469-135.726-37.795
	C185.623,410.531,94.022,433.431,120.274,512H391.726z"/>
<path style="fill:#937FE6;" d="M187.119,438.779c-47.718-8.129-84.777,19.554-66.845,73.221h30.905
	C137.404,470.772,156.087,444.885,187.119,438.779z"/>
<path style="fill:#E34B4C;" d="M46.067,154.876c3.761,1.356,7.794,2.079,11.958,2.079l16.681-0.21l9.365,13.243
	c6.565,9.284,17.25,14.826,28.58,14.827c0.001,0,0.001,0,0.002,0c15.479,0,28.961-9.913,33.548-24.668l4.814-15.489l15.49-4.814
	c12.842-3.992,22.127-14.723,24.231-28.007c2.104-13.283-3.411-26.358-14.391-34.124l-13.243-9.365l0.207-16.218
	c0.121-9.467-3.446-18.362-10.044-25.045c-0.382-0.386-0.774-0.761-1.172-1.129C101.429,53.062,62.75,99.34,46.067,154.876z"/>
<path style="fill:#FADC60;" d="M119.584,40.083l-15.584,11.629c-3.817,2.848-8.792,3.637-13.302,2.107l-18.414-6.245
	c-11.359-3.852-22.203,6.993-18.352,18.352l6.245,18.414c1.53,4.51,0.742,9.485-2.107,13.302l-11.629,15.584
	c-7.173,9.613-0.21,23.278,11.782,23.124l19.443-0.248c4.763-0.061,9.25,2.225,12,6.114l11.227,15.875
	c6.925,9.793,22.073,7.394,25.633-4.06l5.772-18.568c1.413-4.548,4.975-8.11,9.523-9.523l18.568-5.772
	c11.454-3.56,13.853-18.708,4.06-25.633l-15.875-11.227c-3.889-2.75-6.175-7.237-6.114-12l0.248-19.443
	C142.861,39.873,129.197,32.91,119.584,40.083z"/>
<g>
</g>
<g>
</g>
<g>
</g>
<g>
</g>
<g>
</g>
<g>
</g>
<g>
</g>
<g>
</g>
<g>
</g>
<g>
</g>
<g>
</g>
<g>
</g>
<g>
</g>
<g>
</g>
<g>
</g>
</svg>
