<?xml version="1.0" encoding="iso-8859-1"?>
<!-- Generator: Adobe Illustrator 19.0.0, SVG Export Plug-In . SVG Version: 6.00 Build 0)  -->
<svg version="1.1" id="Capa_1" xmlns="http://www.w3.org/2000/svg" xmlns:xlink="http://www.w3.org/1999/xlink" x="0px" y="0px"
	 viewBox="0 0 512 512" style="enable-background:new 0 0 512 512;" xml:space="preserve">
<path style="fill:#69BFE2;" d="M445.738,187.461c-4.958-15.616-19.568-26.934-36.826-26.934c-20.174,0-36.728,15.465-38.473,35.186
	c-8.683,1.612-15.262,9.213-15.262,18.362c0,10.322,8.368,18.69,18.69,18.69h68.299c12.588,0,22.793-10.205,22.793-22.793
	C464.958,198.601,456.629,189.176,445.738,187.461z"/>
<path style="opacity:0.1;enable-background:new    ;" d="M445.738,187.461c-4.958-15.616-19.568-26.934-36.826-26.934
	c-1.305,0-2.593,0.068-3.864,0.194c15.568,1.527,28.423,12.289,33.011,26.74c10.891,1.715,19.22,11.14,19.22,22.512
	c0,12.588-10.205,22.793-22.793,22.793h7.679c12.588,0,22.793-10.205,22.793-22.793
	C464.958,198.601,456.629,189.176,445.738,187.461z"/>
<g>
	<path style="fill:#445258;" d="M221.937,437.036c-4.143,0-7.5-3.358-7.5-7.5v-40.739c0-4.142,3.357-7.5,7.5-7.5s7.5,3.358,7.5,7.5
		v40.739C229.437,433.678,226.079,437.036,221.937,437.036z"/>
	<path style="fill:#445258;" d="M264.167,437.036c-4.142,0-7.5-3.358-7.5-7.5v-40.739c0-4.142,3.358-7.5,7.5-7.5
		c4.143,0,7.5,3.358,7.5,7.5v40.739C271.667,433.678,268.31,437.036,264.167,437.036z"/>
</g>
<path style="fill:#FDBA6D;" d="M292.933,12.925c53.158,0,125.005,50.632,125.005,144.391c0,128.762-97.574,141.652-130.512,222.68
	c-2.168,5.334-7.38,8.8-13.137,8.8h-62.473c-5.758,0-10.969-3.466-13.137-8.8c-32.937-81.028-130.512-93.918-130.512-222.68
	c0-93.759,71.847-144.391,125.005-144.391C193.173,12.925,292.933,12.925,292.933,12.925z"/>
<path style="fill:#D77458;" d="M292.933,12.925c53.158,0,125.005,50.632,125.005,144.391c0,128.762-97.574,141.652-130.512,222.68
	c-2.168,5.334-7.38,8.8-13.137,8.8h-62.473c-5.758,0-10.969-3.466-13.137-8.8c-32.937-81.028-130.512-93.918-130.512-222.68
	c0-93.759,71.847-144.391,125.005-144.391C193.173,12.925,292.933,12.925,292.933,12.925z"/>
<path style="opacity:0.1;enable-background:new    ;" d="M347.253,31.428c-1.899-2.1-3.867-4.116-5.889-6.066
	c-16.252-8.225-33.116-12.436-48.431-12.436h-99.761c-15.315,0-32.179,4.211-48.431,12.436c-2.022,1.95-3.991,3.966-5.889,6.066
	c-28.76,31.814-42.179,80.469-36.818,133.489c6.892,68.165,39.018,107.171,67.363,141.586
	c23.176,28.138,41.483,50.367,41.496,82.259c0.306,0.02,0.613,0.035,0.923,0.035h62.473c0.31,0,0.617-0.015,0.923-0.035
	c0.014-31.892,18.32-54.12,41.496-82.259c28.344-34.415,60.471-73.421,67.363-141.586
	C389.432,111.897,376.012,63.242,347.253,31.428z"/>
<path style="fill:#FDBA6D;" d="M264.167,388.796c0-77.703,96.738-104.551,108.916-224.99C381.672,78.862,340.972,0,243.052,0
	s-138.62,78.862-130.031,163.806c12.178,120.439,108.916,147.287,108.916,224.99L264.167,388.796L264.167,388.796z"/>
<path style="fill:#A67875;" d="M295.184,451.857H190.92c-3.55,0-6.428-2.878-6.428-6.428v-9.464c0-3.55,2.878-6.428,6.428-6.428
	h104.264c3.55,0,6.428,2.878,6.428,6.428v9.464C301.612,448.978,298.734,451.857,295.184,451.857z"/>
<path style="opacity:0.1;enable-background:new    ;" d="M295.184,429.536h-11.333c3.55,0,6.428,2.878,6.428,6.428v9.464
	c0,3.55-2.878,6.428-6.428,6.428h11.333c3.55,0,6.428-2.878,6.428-6.428v-9.464C301.612,432.414,298.734,429.536,295.184,429.536z"
	/>
<path style="fill:#A67875;" d="M294.549,451.857H191.555v42.4c0,9.799,7.944,17.743,17.743,17.743h67.507
	c9.799,0,17.743-7.944,17.743-17.743L294.549,451.857L294.549,451.857z"/>
<path style="opacity:0.1;enable-background:new    ;" d="M191.555,451.857v13.654h89.25v28.746c0,9.799-7.944,17.743-17.743,17.743
	h13.744c9.8,0,17.744-7.944,17.744-17.743v-42.4H191.555z"/>
<g>
	<path style="fill:#445258;" d="M155.45,151.367c-4.143,0-7.5-3.358-7.5-7.5v-14.941c0-4.142,3.357-7.5,7.5-7.5s7.5,3.358,7.5,7.5
		v14.941C162.95,148.009,159.592,151.367,155.45,151.367z"/>
	<path style="fill:#445258;" d="M243.052,180.503L243.052,180.503c-13.929,0-25.22-11.291-25.22-25.22v-18.475
		c0-3.716,3.013-6.729,6.729-6.729h36.982c3.716,0,6.729,3.013,6.729,6.729v18.475C268.272,169.212,256.981,180.503,243.052,180.503
		z"/>
	<path style="fill:#445258;" d="M330.655,151.367c-4.142,0-7.5-3.358-7.5-7.5v-14.941c0-4.142,3.358-7.5,7.5-7.5
		c4.143,0,7.5,3.358,7.5,7.5v14.941C338.155,148.009,334.797,151.367,330.655,151.367z"/>
</g>
<path style="fill:#69BFE2;" d="M154.056,261.452c-5.858-18.454-23.123-31.827-43.517-31.827c-23.84,0-43.4,18.275-45.463,41.579
	c-10.261,1.905-18.036,10.886-18.036,21.699c0,12.198,9.888,22.086,22.086,22.086h80.708c14.875,0,26.934-12.059,26.934-26.934
	C176.768,274.615,166.925,263.478,154.056,261.452z"/>
<path style="opacity:0.1;enable-background:new    ;" d="M154.056,261.452c-5.858-18.454-23.123-31.827-43.517-31.827
	c-1.541,0-3.064,0.08-4.566,0.229c18.396,1.805,33.587,14.522,39.008,31.598c12.869,2.026,22.712,13.164,22.712,26.602
	c0,14.875-12.059,26.934-26.934,26.934h9.075c14.875,0,26.934-12.059,26.934-26.934
	C176.768,274.615,166.925,263.478,154.056,261.452z"/>
<g>
</g>
<g>
</g>
<g>
</g>
<g>
</g>
<g>
</g>
<g>
</g>
<g>
</g>
<g>
</g>
<g>
</g>
<g>
</g>
<g>
</g>
<g>
</g>
<g>
</g>
<g>
</g>
<g>
</g>
</svg>
