<?xml version="1.0" encoding="iso-8859-1"?>
<!-- Generator: Adobe Illustrator 19.0.0, SVG Export Plug-In . SVG Version: 6.00 Build 0)  -->
<svg version="1.1" id="Capa_1" xmlns="http://www.w3.org/2000/svg" xmlns:xlink="http://www.w3.org/1999/xlink" x="0px" y="0px"
	 viewBox="0 0 512 512" style="enable-background:new 0 0 512 512;" xml:space="preserve">
<path style="fill:#E86FA8;" d="M442.981,409.422h-17.034c-6.128,0-11.095-4.968-11.095-11.095c0-6.128,4.968-11.095,11.095-11.095
	h17.034c18.745,0,35.78-10.32,44.46-26.933c3.337-6.386,3.099-13.877-0.634-20.039c-3.733-6.161-10.263-9.84-17.467-9.84h-16.419
	c-6.128,0-11.095-4.968-11.095-11.095s4.967-11.095,11.095-11.095h16.419c15.032,0,28.657,7.676,36.446,20.533
	c7.789,12.858,8.284,28.488,1.323,41.812C494.59,394.535,470.018,409.422,442.981,409.422z"/>
<path style="fill:#FF9AC8;" d="M463.633,293.611c-0.467-9.622-8.384-17.189-18.016-17.189H288.224
	c-9.633,0-17.55,7.567-18.016,17.189c-1.533,31.617,1.319,99.475,48.093,140.109c4.978,4.324,11.398,6.626,17.991,6.626h61.258
	c6.593,0,13.013-2.301,17.991-6.626C462.315,393.087,465.166,325.228,463.633,293.611z"/>
<g>
	<path style="fill:#3A484A;" d="M326.613,365.287c-4.267,0-7.726-3.459-7.726-7.726v-7.295c0-4.267,3.459-7.726,7.726-7.726
		s7.726,3.459,7.726,7.726v7.295C334.339,361.827,330.88,365.287,326.613,365.287z"/>
	<path style="fill:#3A484A;" d="M407.229,365.287c-4.267,0-7.726-3.459-7.726-7.726v-7.295c0-4.267,3.459-7.726,7.726-7.726
		s7.726,3.459,7.726,7.726v7.295C414.955,361.827,411.496,365.287,407.229,365.287z"/>
	<path style="fill:#3A484A;" d="M366.921,370.679c-6.994,0-13.568-2.934-18.041-8.049c-2.808-3.213-2.481-8.094,0.731-10.902
		c3.213-2.808,8.093-2.482,10.902,0.731c1.537,1.759,3.872,2.767,6.407,2.767c2.534,0,4.87-1.009,6.407-2.767
		c2.808-3.212,7.688-3.541,10.902-0.731c3.213,2.808,3.541,7.689,0.731,10.902C380.489,367.745,373.914,370.679,366.921,370.679z"/>
</g>
<path style="fill:#D4D2D3;" d="M366.918,209.891c-1.789,0-3.586-0.618-5.047-1.879c-4.154-3.587-6.535-8.793-6.535-14.28
	c0-5.488,2.383-10.692,6.535-14.279c1.029-0.889,1.183-2.001,1.183-2.585c0-0.583-0.154-1.696-1.183-2.585
	c-4.154-3.586-6.535-8.792-6.535-14.279c0-5.488,2.383-10.693,6.536-14.279c3.231-2.79,8.11-2.432,10.897,0.797
	c2.79,3.23,2.431,8.109-0.797,10.897c-1.029,0.889-1.183,2.001-1.183,2.585c0,0.584,0.153,1.696,1.183,2.585
	c4.154,3.587,6.535,8.793,6.535,14.279c0,5.488-2.383,10.692-6.535,14.279c-1.03,0.889-1.184,2.002-1.184,2.585
	c0,0.584,0.153,1.696,1.184,2.585c3.23,2.79,3.586,7.668,0.797,10.898C371.241,208.984,369.085,209.891,366.918,209.891z"/>
<g>
	<path style="fill:#BAB8B9;" d="M329.01,245.395c-1.789,0-3.586-0.618-5.047-1.879c-4.153-3.587-6.535-8.792-6.535-14.279
		c0-5.488,2.383-10.692,6.535-14.279c1.03-0.889,1.184-2.002,1.184-2.586c0-0.583-0.154-1.696-1.184-2.585
		c-4.153-3.587-6.535-8.793-6.535-14.28c0-5.488,2.383-10.692,6.535-14.279c3.23-2.79,8.108-2.432,10.897,0.796
		c2.79,3.23,2.432,8.109-0.796,10.897c-1.029,0.889-1.183,2.002-1.183,2.585c0,0.584,0.153,1.696,1.183,2.586
		c4.154,3.586,6.535,8.792,6.535,14.279c0,5.488-2.383,10.693-6.535,14.28c-1.029,0.889-1.183,2.001-1.183,2.585
		c0,0.584,0.153,1.696,1.183,2.586c3.23,2.79,3.586,7.668,0.796,10.897C333.334,244.489,331.178,245.395,329.01,245.395z"/>
	<path style="fill:#BAB8B9;" d="M404.824,245.395c-1.789,0-3.586-0.618-5.047-1.879c-4.154-3.587-6.535-8.793-6.535-14.28
		c0-5.488,2.383-10.692,6.535-14.279c1.03-0.889,1.184-2.001,1.184-2.585c0-0.583-0.153-1.696-1.184-2.585
		c-4.154-3.587-6.535-8.793-6.535-14.28c0-5.488,2.383-10.692,6.535-14.279c3.231-2.79,8.11-2.431,10.898,0.797
		c2.79,3.23,2.432,8.109-0.797,10.898c-1.03,0.889-1.184,2.001-1.184,2.585c0,0.584,0.154,1.696,1.184,2.585
		c4.154,3.587,6.535,8.793,6.535,14.279c0,5.488-2.383,10.693-6.535,14.28c-1.03,0.889-1.184,2.001-1.184,2.585
		c0,0.584,0.154,1.696,1.184,2.585c3.23,2.79,3.586,7.668,0.797,10.898C409.147,244.489,406.992,245.395,404.824,245.395z"/>
</g>
<path style="fill:#E86FA8;" d="M328.331,276.423h-40.107c-9.633,0-17.55,7.567-18.016,17.189
	c-1.233,25.436,0.378,74.327,25.408,113.629c10.566-17.906,18.677-38.218,24.219-60.841
	C326.075,320.926,328.092,296.361,328.331,276.423z"/>
<path style="fill:#B9A8FF;" d="M60.457,256.93c0.583-12.026,10.479-21.485,22.52-21.485h196.739c12.041,0,21.937,9.458,22.52,21.485
	c1.916,39.521-1.648,124.343-60.115,175.134c-6.222,5.405-14.246,8.283-22.488,8.283h-76.571c-8.241,0-16.267-2.877-22.488-8.283
	C62.105,381.273,58.54,296.451,60.457,256.93z"/>
<path style="fill:#A394E0;" d="M151.477,432.063c-58.467-50.79-62.031-135.612-60.115-175.134
	c0.583-12.026,10.479-21.485,22.52-21.485H82.976c-12.041,0-21.937,9.458-22.52,21.485c-0.259,5.33-0.415,11.49-0.352,18.272h-6.781
	c-18.791,0-35.82,9.594-45.557,25.665c-9.736,16.072-10.354,35.609-1.653,52.264c15.647,29.954,46.363,48.56,80.158,48.56h7.721
	c7.267,10.921,16.024,21.203,26.58,30.372c6.222,5.405,14.246,8.283,22.488,8.283h30.905
	C165.724,440.346,157.698,437.468,151.477,432.063z M30.698,340.287c-4.17-7.982-3.873-17.346,0.792-25.048
	c4.667-7.702,12.829-12.3,21.834-12.3h8.261c2.172,21.952,7.106,46.791,17.268,70.57C58.415,371.101,40.388,358.837,30.698,340.287z
	"/>
<g>
	<path style="fill:#3A484A;" d="M231.73,344.592c-4.267,0-7.726-3.459-7.726-7.726v-9.119c0-4.267,3.459-7.726,7.726-7.726
		s7.726,3.459,7.726,7.726v9.119C239.457,341.133,235.997,344.592,231.73,344.592z"/>
	<path style="fill:#3A484A;" d="M130.961,344.592c-4.267,0-7.726-3.459-7.726-7.726v-9.119c0-4.267,3.459-7.726,7.726-7.726
		c4.267,0,7.726,3.459,7.726,7.726v9.119C138.687,341.133,135.228,344.592,130.961,344.592z"/>
	<path style="fill:#3A484A;" d="M181.345,351.332c-8.185,0-15.875-3.427-21.097-9.401c-2.808-3.213-2.48-8.094,0.732-10.902
		c3.212-2.808,8.093-2.481,10.902,0.732c2.288,2.618,5.736,4.119,9.462,4.119c3.725,0,7.174-1.502,9.462-4.12
		c2.808-3.213,7.689-3.541,10.902-0.731c3.212,2.808,3.54,7.689,0.731,10.902C197.218,347.904,189.529,351.332,181.345,351.332z"/>
</g>
<path style="fill:#BAB8B9;" d="M181.349,150.349c-2.168,0-4.323-0.907-5.851-2.676c-2.789-3.23-2.432-8.109,0.797-10.898
	c1.869-1.613,2.147-3.632,2.148-4.692c0-1.06-0.279-3.079-2.148-4.694c-4.766-4.116-7.5-10.089-7.5-16.387
	c0-6.297,2.733-12.272,7.5-16.388c1.869-1.614,2.147-3.632,2.148-4.692c0-1.06-0.279-3.079-2.148-4.694
	c-3.23-2.79-3.586-7.669-0.796-10.897c2.789-3.23,7.668-3.586,10.897-0.796c4.767,4.117,7.5,10.09,7.5,16.388
	c0,6.297-2.734,12.27-7.5,16.387c-1.869,1.614-2.148,3.633-2.148,4.694c0,1.059,0.279,3.078,2.147,4.692
	c4.767,4.118,7.501,10.091,7.501,16.388s-2.734,12.27-7.5,16.387C184.935,149.731,183.138,150.349,181.349,150.349z"/>
<g>
	<path style="fill:#D4D2D3;" d="M228.731,194.729c-2.167,0-4.323-0.907-5.851-2.676c-2.79-3.23-2.432-8.109,0.797-10.897
		c1.869-1.613,2.147-3.632,2.147-4.692c0-1.06-0.279-3.079-2.147-4.692c-4.767-4.117-7.501-10.09-7.501-16.388
		s2.734-12.272,7.501-16.388c1.869-1.613,2.147-3.632,2.147-4.692s-0.279-3.079-2.147-4.692c-3.23-2.79-3.587-7.668-0.797-10.897
		c2.789-3.23,7.669-3.587,10.897-0.797c4.767,4.117,7.501,10.09,7.501,16.388s-2.734,12.272-7.501,16.388
		c-1.869,1.613-2.147,3.632-2.147,4.692s0.279,3.079,2.147,4.692c4.767,4.117,7.501,10.09,7.501,16.388
		c0,6.299-2.734,12.272-7.501,16.388C232.318,194.112,230.52,194.729,228.731,194.729z"/>
	<path style="fill:#D4D2D3;" d="M133.966,194.729c-2.168,0-4.323-0.907-5.851-2.676c-2.79-3.23-2.432-8.109,0.797-10.897
		c1.869-1.613,2.147-3.632,2.147-4.692c0-1.06-0.279-3.079-2.147-4.692c-4.767-4.117-7.501-10.09-7.501-16.388
		s2.734-12.272,7.501-16.388c1.869-1.613,2.147-3.632,2.147-4.692s-0.279-3.079-2.147-4.692c-3.23-2.79-3.587-7.668-0.797-10.897
		c2.789-3.23,7.668-3.587,10.897-0.797c4.767,4.117,7.501,10.09,7.501,16.388s-2.734,12.272-7.501,16.388
		c-1.869,1.613-2.147,3.632-2.147,4.692s0.279,3.079,2.147,4.692c4.767,4.117,7.501,10.09,7.501,16.388
		c0,6.299-2.734,12.272-7.501,16.388C137.553,194.112,135.756,194.729,133.966,194.729z"/>
</g>
<g>
</g>
<g>
</g>
<g>
</g>
<g>
</g>
<g>
</g>
<g>
</g>
<g>
</g>
<g>
</g>
<g>
</g>
<g>
</g>
<g>
</g>
<g>
</g>
<g>
</g>
<g>
</g>
<g>
</g>
</svg>
