<?xml version="1.0" encoding="iso-8859-1"?>
<!-- Generator: Adobe Illustrator 19.0.0, SVG Export Plug-In . SVG Version: 6.00 Build 0)  -->
<svg version="1.1" id="Capa_1" xmlns="http://www.w3.org/2000/svg" xmlns:xlink="http://www.w3.org/1999/xlink" x="0px" y="0px"
	 viewBox="0 0 512 512" style="enable-background:new 0 0 512 512;" xml:space="preserve">
<path style="fill:#EAEAF1;" d="M456.783,108.155L236.71,36.171L128.294,367.631c-5.553,16.975,3.708,35.238,20.683,40.791
	l189.337,61.929c16.975,5.553,35.238-3.708,40.791-20.683l98.363-300.724C483.02,131.969,473.76,113.707,456.783,108.155z"/>
<path style="fill:#CCCDD9;" d="M375.45,418.302l97.556-298.257c-3.867-5.402-9.424-9.667-16.222-11.891L236.71,36.171
	L128.294,367.631c-2.224,6.798-2.067,13.801,0.005,20.113l186.871,61.123c4.821,1.577,9.822,2.377,14.862,2.378
	c0.001,0,0.001,0,0.002,0C350.754,451.246,369.005,438.006,375.45,418.302z"/>
<path style="fill:#FBBED5;" d="M438.443,71.984L218.368,0L109.952,331.461c-5.553,16.975,3.708,35.238,20.683,40.791l189.337,61.929
	c16.975,5.553,35.238-3.708,40.791-20.683l98.363-300.724C464.679,95.799,455.418,77.536,438.443,71.984z"/>
<path style="fill:#FAA0C2;" d="M321.197,106.531c-10.368-21.033-31.981-35.195-56.728-35.195h-69.434l-85.083,260.125
	c-5.553,16.976,3.708,35.238,20.683,40.791l189.337,61.929c13.792,4.511,28.434-0.755,36.418-11.993V163.259
	C356.391,138.512,342.23,116.899,321.197,106.531z"/>
<path style="fill:#EAEAF1;" d="M293.146,130.92H61.599v348.741c0,17.86,14.479,32.339,32.339,32.339h199.208
	c17.86,0,32.339-14.479,32.339-32.339V163.259C325.486,145.398,311.006,130.92,293.146,130.92z"/>
<path style="fill:#CCCDD9;" d="M293.146,130.92H61.599v348.741c0,7.153,2.327,13.76,6.258,19.115h196.612
	c26.353,0,47.792-21.44,47.792-47.792V137.178C306.906,133.246,300.299,130.92,293.146,130.92z"/>
<path style="fill:#41D0E0;" d="M264.469,102.242H32.921v348.741c0,17.86,14.479,32.339,32.339,32.339h199.208
	c17.86,0,32.339-14.479,32.339-32.339V134.582C296.809,116.722,282.329,102.242,264.469,102.242z"/>
<path style="fill:#84E1F0;" d="M63.827,450.983V102.242H32.921v348.741c0,17.86,14.479,32.339,32.339,32.339h30.905
	C78.306,483.323,63.827,468.845,63.827,450.983z"/>
<g>
	<path style="fill:#EAEAF1;" d="M248.76,333.637c14.262-18.14,22.778-41.002,22.778-65.814c0-24.813-8.515-47.674-22.778-65.815
		c-0.237-0.365-0.501-0.719-0.807-1.05c-0.059-0.064-0.125-0.12-0.185-0.18c-19.573-24.156-49.463-39.627-82.903-39.627
		c-58.819,0-106.672,47.853-106.672,106.672c0,58.216,46.877,105.68,104.865,106.65c0.083,0.002,0.167,0.015,0.251,0.015
		c0.052,0,0.103-0.009,0.155-0.01c0.051,0.001,0.103,0.01,0.155,0.01c0.038,0,0.076-0.006,0.114-0.007
		c0.377,0.004,0.753,0.014,1.131,0.014c33.442,0,63.333-15.473,82.907-39.631c0.06-0.061,0.124-0.113,0.181-0.176
		C248.259,334.356,248.523,334.001,248.76,333.637z M73.976,275.548h30.205c0.579,10.173,2.302,20.096,5.05,29.576
		c-7.238,3.619-14.085,7.962-20.426,12.996C80.572,305.712,75.294,291.186,73.976,275.548z M88.805,217.524
		c6.344,5.033,13.19,9.378,20.43,12.997c-2.75,9.481-4.474,19.403-5.054,29.574H73.975
		C75.294,244.457,80.572,229.931,88.805,217.524z M255.755,260.095h-33.008c-0.555-9.741-2.151-19.258-4.701-28.374
		c8.148-3.844,15.826-8.592,22.881-14.194C249.159,229.933,254.436,244.459,255.755,260.095z M207.266,260.095h-34.675v-16.886
		c10.691-0.637,21.097-2.592,30.997-5.782C205.519,244.733,206.768,252.326,207.266,260.095z M172.591,227.705v-42.25
		c11.171,10.052,20.043,22.86,26.052,37.319C190.32,225.439,181.577,227.095,172.591,227.705z M157.139,183.033v44.672
		c-9.866-0.671-19.441-2.621-28.498-5.766C135.145,206.64,144.869,193.229,157.139,183.033z M157.139,243.21v16.886h-37.477
		c0.518-8.076,1.839-15.966,3.902-23.536C134.234,240.264,145.522,242.516,157.139,243.21z M119.662,275.548h37.477v16.885
		c-11.616,0.694-22.906,2.946-33.577,6.651C121.501,291.514,120.179,283.625,119.662,275.548z M157.139,307.939v44.676
		c-12.274-10.195-21.997-23.607-28.501-38.909C137.696,310.559,147.272,308.609,157.139,307.939z M172.591,350.187v-42.25
		c8.987,0.61,17.731,2.266,26.056,4.932C192.64,327.331,183.765,340.135,172.591,350.187z M172.591,292.432v-16.885h34.675
		c-0.498,7.77-1.746,15.363-3.676,22.667C193.69,295.025,183.284,293.07,172.591,292.432z M222.747,275.548h33.008
		c-1.318,15.637-6.596,30.162-14.827,42.568c-7.055-5.601-14.732-10.348-22.878-14.192
		C220.598,294.809,222.191,285.291,222.747,275.548z M231.313,205.395c-5.685,4.513-11.82,8.416-18.341,11.621
		c-5.783-13.961-13.934-26.602-24.036-37.185C205.368,184.331,219.962,193.32,231.313,205.395z M136.893,180.995
		c-9.309,10.033-16.888,21.847-22.421,34.826c-5.671-2.966-11.044-6.45-16.054-10.426
		C108.861,194.285,122.052,185.787,136.893,180.995z M98.417,330.247c5.01-3.975,10.381-7.458,16.05-10.423
		c5.531,12.978,13.108,24.789,22.417,34.821C122.047,349.853,108.859,341.356,98.417,330.247z M188.939,355.81
		c10.104-10.583,18.256-23.22,24.038-37.182c6.519,3.206,12.653,7.107,18.336,11.619C219.963,342.322,205.37,351.31,188.939,355.81z
		"/>
	<path style="fill:#EAEAF1;" d="M237.656,387.395H89.598c-4.267,0-7.726,3.459-7.726,7.726c0,4.267,3.459,7.726,7.726,7.726h148.058
		c4.267,0,7.726-3.459,7.726-7.726C245.382,390.855,241.923,387.395,237.656,387.395z"/>
	<path style="fill:#EAEAF1;" d="M237.656,420.676H89.598c-4.267,0-7.726,3.459-7.726,7.726c0,4.267,3.459,7.726,7.726,7.726h148.058
		c4.267,0,7.726-3.459,7.726-7.726C245.382,424.136,241.923,420.676,237.656,420.676z"/>
</g>
<g>
</g>
<g>
</g>
<g>
</g>
<g>
</g>
<g>
</g>
<g>
</g>
<g>
</g>
<g>
</g>
<g>
</g>
<g>
</g>
<g>
</g>
<g>
</g>
<g>
</g>
<g>
</g>
<g>
</g>
</svg>
