<?xml version="1.0" encoding="iso-8859-1"?>
<!-- Generator: Adobe Illustrator 19.0.0, SVG Export Plug-In . SVG Version: 6.00 Build 0)  -->
<svg version="1.1" id="Capa_1" xmlns="http://www.w3.org/2000/svg" xmlns:xlink="http://www.w3.org/1999/xlink" x="0px" y="0px"
	 viewBox="0 0 512 512" style="enable-background:new 0 0 512 512;" xml:space="preserve">
<path style="fill:#6DA1D9;" d="M238.794,63.468l-23.565,14.929C158.888,114.091,109.21,159.344,68.43,212.12l0,0
	c-14.469,18.725-1.122,45.906,22.542,45.906h147.823V63.468H238.794z"/>
<path style="fill:#F8E686;" d="M238.794,195.652v-55.264H134.327c-18.744,17.21-36.342,35.67-52.67,55.264L238.794,195.652
	L238.794,195.652z"/>
<path style="fill:#7EBBE6;" d="M267.946,37.415l13.262,13.821c40.846,42.57,74.473,91.52,99.554,144.919l0,0
	c13.523,28.792-7.486,61.871-39.295,61.871h-73.521L267.946,37.415L267.946,37.415z"/>
<path style="fill:#F8E686;" d="M267.946,195.652H380.52c-8.957-19.019-19.012-37.464-30.078-55.264h-82.495L267.946,195.652
	L267.946,195.652z"/>
<path style="fill:#495059;" d="M258.322,21.269h-9.904c-5.315,0-9.624,4.309-9.624,9.624v299.321h29.152V30.893
	C267.946,25.578,263.637,21.269,258.322,21.269z"/>
<path style="fill:#F9F1DA;" d="M350.747,415.85H93.627c-27.147,0-50.888-18.288-57.816-44.536l-8.672-32.856
	c-4.216-15.975,7.527-31.719,24.041-32.231l427.172-13.259c13.353-0.414,21.764,14.238,14.672,25.56l-17.801,28.416
	C448.366,389.816,401.337,415.85,350.747,415.85z"/>
<g>
	<path style="fill:#E683B5;" d="M36.659,374.199c7.854,24.692,30.829,41.651,56.968,41.651h257.12
		c50.59,0,97.619-26.034,124.476-68.907l8.081-12.9C376.027,359.646,124.723,371.521,36.659,374.199z"/>
	<path style="fill:#E683B5;" d="M271.578,340.734c-4.035,0-7.366-3.206-7.492-7.267c-0.129-4.14,3.123-7.601,7.264-7.729
		l23.142-0.718c4.169-0.114,7.601,3.124,7.728,7.264c0.129,4.141-3.123,7.601-7.264,7.729l-23.142,0.718
		C271.735,340.733,271.656,340.734,271.578,340.734z"/>
	<path style="fill:#E683B5;" d="M121.712,345.386c-4.035,0-7.366-3.206-7.492-7.268c-0.129-4.14,3.123-7.6,7.264-7.729
		l124.885-3.876c4.166-0.117,7.601,3.124,7.729,7.264c0.129,4.14-3.123,7.6-7.264,7.729l-124.885,3.876
		C121.869,345.385,121.79,345.386,121.712,345.386z"/>
</g>
<path style="opacity:0.15;fill:#A95425;enable-background:new    ;" d="M51.181,306.227c-16.514,0.513-28.257,16.256-24.041,32.231
	l8.672,32.856c6.928,26.248,30.668,44.536,57.816,44.536h225.459c-68.7-17.565-123.895-80.371-99.081-114.863L51.181,306.227z"/>
<path style="fill:#7EBBE6;" d="M512,462.64v-49.976c0-9.908-10.571-16.233-19.302-11.549l-6.298,3.379
	c-15.989,8.578-35.211,8.578-51.2,0l0,0c-15.989-8.578-35.211-8.578-51.2,0l0,0c-15.989,8.578-35.211,8.578-51.2,0l0,0
	c-15.989-8.578-35.211-8.578-51.2,0l0,0c-15.989,8.578-35.211,8.578-51.2,0l0,0c-15.989-8.578-35.211-8.578-51.2,0l0,0
	c-15.989,8.578-35.211,8.578-51.2,0l0,0c-15.989-8.578-35.211-8.578-51.2,0l0,0c-15.989,8.578-35.211,8.578-51.2,0l-6.298-3.379
	C10.571,396.431,0,402.756,0,412.664v49.976c0,15.514,12.577,28.091,28.091,28.091H483.91C499.423,490.731,512,478.154,512,462.64z"
	/>
<g>
	<path style="opacity:0.15;fill:#2E4486;enable-background:new    ;" d="M28.091,490.731h317.634
		c-57.362-12.718-92.818-49.212-81.172-80.507c-11.551,1.847-23.56-0.047-34.153-5.73l0,0c-15.989-8.578-35.211-8.578-51.2,0l0,0
		c-15.989,8.578-35.211,8.578-51.2,0s-35.211-8.578-51.2,0l0,0c-15.989,8.578-35.211,8.578-51.2,0l-6.298-3.379
		C10.571,396.431,0,402.756,0,412.664v49.976C0,478.154,12.577,490.731,28.091,490.731z"/>
	<path style="opacity:0.15;fill:#2E4486;enable-background:new    ;" d="M142.363,464.781c-10.01,0-20.021-2.447-29.146-7.343
		c-13.81-7.41-30.299-7.409-44.108,0c-3.649,1.959-8.195,0.586-10.155-3.063c-1.958-3.65-0.586-8.197,3.063-10.155
		c18.25-9.792,40.042-9.792,58.292,0c13.813,7.409,30.302,7.408,44.108,0c3.654-1.958,8.196-0.586,10.155,3.064
		c1.958,3.65,0.586,8.196-3.063,10.154C162.385,462.334,152.374,464.781,142.363,464.781z"/>
	<path style="opacity:0.15;fill:#2E4486;enable-background:new    ;" d="M405.685,458.348c-10.011,0-20.02-2.448-29.146-7.343
		c-13.809-7.409-30.299-7.409-44.107,0c-3.652,1.961-8.196,0.586-10.154-3.063c-1.959-3.65-0.588-8.196,3.063-10.155
		c18.25-9.792,40.041-9.792,58.291,0c13.81,7.408,30.299,7.409,44.108,0c3.65-1.958,8.197-0.586,10.155,3.063
		c1.958,3.65,0.586,8.197-3.063,10.155C425.706,455.9,415.695,458.348,405.685,458.348z"/>
</g>
<g>
</g>
<g>
</g>
<g>
</g>
<g>
</g>
<g>
</g>
<g>
</g>
<g>
</g>
<g>
</g>
<g>
</g>
<g>
</g>
<g>
</g>
<g>
</g>
<g>
</g>
<g>
</g>
<g>
</g>
</svg>
