<?xml version="1.0" encoding="UTF-8"?>
<svg width="398px" height="512px" viewBox="0 0 398 512" version="1.1" xmlns="http://www.w3.org/2000/svg" xmlns:xlink="http://www.w3.org/1999/xlink">
    <!-- Generator: Sketch 47.1 (45422) - http://www.bohemiancoding.com/sketch -->
    <title>991786</title>
    <desc>Created with Sketch.</desc>
    <defs></defs>
    <g id="Page-1" stroke="none" stroke-width="1" fill="none" fill-rule="evenodd">
        <g id="991786" fill-rule="nonzero">
            <g id="Group" opacity="0.807348279" transform="translate(64.000000, 195.000000)" fill="#6DA7FF">
                <path d="M67.004,316.671 C63.786,317.238 60.391,317.087 57.047,316.093 C45.537,312.669 38.982,300.564 42.405,289.054 C45.127,279.901 43.356,269.857 37.668,262.187 C23.87,243.584 19.575,219.223 26.177,197.02 C28.9,187.867 27.129,177.825 21.44,170.155 C7.641,151.551 3.346,127.19 9.949,104.988 C12.671,95.835 10.901,85.793 5.212,78.123 C-1.941,68.479 0.078,54.861 9.723,47.708 C19.367,40.551 32.984,42.573 40.138,52.218 C53.937,70.822 58.232,95.183 51.629,117.385 C48.907,126.538 50.677,136.58 56.366,144.25 C70.165,162.854 74.46,187.215 67.857,209.417 C65.135,218.57 66.905,228.612 72.594,236.282 C86.392,254.886 90.688,279.248 84.085,301.45 C81.656,309.615 74.858,315.287 67.004,316.671 Z" id="Shape"></path>
                <path d="M187.988,295.339 C184.771,295.906 181.376,295.755 178.031,294.761 C166.521,291.337 159.966,279.232 163.389,267.722 C166.111,258.569 164.34,248.525 158.652,240.855 C144.854,222.252 140.559,197.891 147.161,175.688 C149.884,166.535 148.113,156.493 142.424,148.823 C128.625,130.219 124.33,105.857 130.933,83.656 C133.655,74.503 131.885,64.461 126.196,56.791 C119.043,47.147 121.062,33.529 130.707,26.376 C140.349,19.22 153.969,21.241 161.122,30.886 C174.922,49.49 179.218,73.851 172.613,96.053 C169.892,105.206 171.663,115.248 177.35,122.918 C191.15,141.522 195.446,165.883 188.841,188.085 C186.12,197.238 187.891,207.28 193.578,214.95 C207.377,233.554 211.673,257.915 205.07,280.118 C202.64,288.282 195.841,293.954 187.988,295.339 Z" id="Shape"></path>
                <path d="M308.973,274.006 C305.756,274.573 302.361,274.422 299.015,273.428 C287.506,270.004 280.95,257.899 284.373,246.389 C287.096,237.236 285.325,227.192 279.636,219.522 C265.839,200.919 261.543,176.558 268.145,154.355 C270.868,145.202 269.097,135.16 263.409,127.489 C249.609,108.885 245.313,84.524 251.918,62.322 C254.639,53.169 252.868,43.127 247.181,35.457 C240.027,25.813 242.046,12.195 251.691,5.042 C261.336,-2.115 274.953,-0.093 282.106,9.552 C295.906,28.156 300.202,52.517 293.597,74.719 C290.876,83.872 292.647,93.914 298.334,101.584 C312.134,120.188 316.43,144.549 309.825,166.751 C307.104,175.904 308.875,185.946 314.562,193.616 C328.361,212.22 332.656,236.581 326.054,258.784 C323.626,266.949 316.827,272.621 308.973,274.006 Z" id="Shape"></path>
            </g>
            <g id="Group" transform="translate(64.000000, 195.000000)" fill="#A95425" opacity="0.25">
                <path d="M282.106,9.553 C274.953,-0.092 261.336,-2.114 251.691,5.043 C242.046,12.196 240.027,25.814 247.181,35.458 C252.869,43.128 254.639,53.17 251.918,62.323 C249.939,68.974 248.959,75.819 248.899,82.645 L293.584,74.766 C293.588,74.751 293.592,74.736 293.596,74.721 C300.202,52.518 295.907,28.157 282.106,9.553 Z" id="Shape"></path>
                <path d="M161.121,30.886 C153.968,21.241 140.348,19.219 130.706,26.376 C121.061,33.529 119.042,47.147 126.195,56.791 C131.884,64.461 133.655,74.503 130.932,83.656 C128.954,90.307 127.974,97.152 127.914,103.977 L172.599,96.098 C172.603,96.083 172.607,96.068 172.611,96.053 C179.217,73.851 174.921,49.49 161.121,30.886 Z" id="Shape"></path>
                <path d="M40.138,52.219 C32.983,42.574 19.367,40.552 9.723,47.709 C0.078,54.862 -1.941,68.48 5.212,78.124 C10.901,85.794 12.672,95.836 9.949,104.989 C7.971,111.64 6.991,118.485 6.931,125.311 L51.617,117.432 C51.622,117.417 51.625,117.402 51.629,117.387 C58.232,95.184 53.936,70.823 40.138,52.219 Z" id="Shape"></path>
            </g>
            <path d="M201.763,2.305 L132.3,14.553 C88.213,22.327 49.813,49.183 27.387,87.928 C-3.403,141.123 -8.308,205.44 14.061,262.689 C21.21,280.985 40.275,291.697 59.62,288.286 L363.683,234.671 C383.028,231.26 397.279,214.674 397.739,195.036 C399.178,133.589 372.572,74.828 325.445,35.372 C291.12,6.635 245.851,-5.469 201.763,2.305 Z" id="Shape" fill-opacity="0.800000012" fill="#5699FF"></path>
            <path d="M389.756,133.902 C383.058,135.734 376.664,138.782 370.94,143.028 C356.611,153.656 338.114,156.918 321.014,151.831 L321.014,151.831 C303.914,146.745 285.417,150.006 271.088,160.634 L271.088,160.634 C256.759,171.262 238.262,174.524 221.162,169.437 C204.062,164.351 185.565,167.612 171.236,178.24 C156.907,188.868 138.41,192.13 121.31,187.043 L121.31,187.043 C104.21,181.957 85.713,185.218 71.384,195.846 L71.384,195.846 C57.055,206.474 38.558,209.736 21.458,204.649 C14.628,202.617 7.577,201.94 0.656,202.509 C2.007,222.909 6.452,243.207 14.063,262.687 L14.063,262.687 C21.212,280.983 40.277,291.695 59.622,288.284 L363.685,234.669 C383.03,231.258 397.282,214.672 397.741,195.034 L397.741,195.034 C398.229,174.129 395.464,153.534 389.756,133.902 Z" id="Shape" fill-opacity="0.969999969" fill="#F8E686"></path>
            <g id="Group" transform="translate(79.000000, 74.000000)" fill="#FFFFFF">
                <ellipse id="Oval" transform="translate(32.280182, 53.243849) rotate(-99.997359) translate(-32.280182, -53.243849) " cx="32.2801816" cy="53.2438488" rx="22.189645" ry="27.8665541"></ellipse>
                <ellipse id="Oval" transform="translate(181.056190, 26.978013) rotate(80.002641) translate(-181.056190, -26.978013) " cx="181.05619" cy="26.9780128" rx="22.189645" ry="27.8665541"></ellipse>
            </g>
            <g id="Group" transform="translate(101.000000, 56.000000)" fill="#495059">
                <path d="M10.32,52.117 C6.748,52.117 3.584,49.557 2.943,45.918 L0.866,34.139 C0.147,30.06 2.871,26.17 6.95,25.451 C11.033,24.73 14.919,27.455 15.639,31.535 L17.716,43.314 C18.435,47.393 15.711,51.283 11.632,52.002 C11.191,52.08 10.752,52.117 10.32,52.117 Z" id="Shape"></path>
                <ellipse id="Oval" transform="translate(81.701789, 41.331118) rotate(-99.997359) translate(-81.701789, -41.331118) " cx="81.7017888" cy="41.3311184" rx="25.1395978" ry="22.4666405"></ellipse>
                <path d="M149.897,27.506 C146.326,27.506 143.162,24.946 142.52,21.308 L140.443,9.529 C139.723,5.45 142.447,1.559 146.526,0.841 C150.605,0.121 154.496,2.844 155.215,6.924 L157.292,18.703 C158.012,22.782 155.288,26.673 151.209,27.391 C150.768,27.469 150.329,27.506 149.897,27.506 Z" id="Shape"></path>
            </g>
            <g id="Group" transform="translate(0.000000, 29.000000)" fill="#A95425">
                <path d="M395.549,178.38 C105.194,211.824 65.382,68.6 87.834,0.806 C62.896,13.975 41.827,33.982 27.388,58.929 L27.388,58.929 C-3.402,112.124 -8.307,176.441 14.062,233.69 L14.062,233.69 C21.211,251.986 40.276,262.698 59.621,259.287 L363.684,205.672 C378.796,203.007 390.801,192.301 395.549,178.38 Z" id="Shape" opacity="0.15"></path>
                <g opacity="0.2" transform="translate(32.000000, 33.000000)" id="Oval">
                    <circle cx="312.6" cy="42.77" r="7.441"></circle>
                    <circle cx="282.34" cy="8.12" r="7.441"></circle>
                    <circle cx="26.23" cy="75.02" r="7.441"></circle>
                    <circle cx="7.58" cy="114.09" r="7.441"></circle>
                    <circle cx="48.91" cy="183.87" r="7.441"></circle>
                </g>
            </g>
        </g>
    </g>
</svg>