<?xml version="1.0" encoding="iso-8859-1"?>
<!-- Generator: Adobe Illustrator 19.0.0, SVG Export Plug-In . SVG Version: 6.00 Build 0)  -->
<svg version="1.1" id="Capa_1" xmlns="http://www.w3.org/2000/svg" xmlns:xlink="http://www.w3.org/1999/xlink" x="0px" y="0px"
	 viewBox="0 0 512 512" style="enable-background:new 0 0 512 512;" xml:space="preserve">
<g>
	<path style="fill:#F8B8D8;" d="M150.939,491.87c-10.199,0-19.607-6.657-22.644-16.935c-13.45-45.533,1.096-91.275,37.964-119.375
		c10.378-7.909,25.198-5.906,33.105,4.468c7.907,10.375,5.908,25.198-4.468,33.105c-21.214,16.168-29.174,41.744-21.293,68.416
		c3.695,12.511-3.45,25.65-15.961,29.345C155.409,491.556,153.155,491.87,150.939,491.87z"/>
	<path style="fill:#F8B8D8;" d="M67.322,455.145c-11.604,0-21.724-8.552-23.367-20.371c-3.257-23.434,2.354-46.045,15.805-63.666
		c14.261-18.685,36.757-30.871,63.344-34.315c12.936-1.68,24.783,7.454,26.459,20.391c1.676,12.937-7.454,24.784-20.392,26.46
		c-14.191,1.838-25.208,7.414-31.857,16.127c-5.827,7.633-8.097,17.487-6.567,28.498c1.797,12.921-7.222,24.852-20.144,26.649
		C69.501,455.071,68.404,455.145,67.322,455.145z"/>
	<path style="fill:#F8B8D8;" d="M361.061,491.87c-2.216,0-4.468-0.315-6.702-0.974c-12.511-3.696-19.656-16.834-15.961-29.345
		c7.881-26.672-0.08-52.248-21.293-68.416c-10.376-7.908-12.375-22.73-4.468-33.105c7.909-10.375,22.731-12.375,33.105-4.468
		c36.867,28.1,51.414,73.842,37.964,119.375C380.668,485.213,371.259,491.87,361.061,491.87z"/>
	<path style="fill:#F8B8D8;" d="M444.678,455.145c-1.083,0-2.178-0.074-3.281-0.228c-12.922-1.797-21.941-13.727-20.144-26.649
		c1.531-11.011-0.74-20.866-6.566-28.498c-6.649-8.712-17.665-14.288-31.857-16.126c-12.937-1.676-22.068-13.522-20.392-26.459
		c1.675-12.937,13.516-22.073,26.459-20.392c26.586,3.443,49.082,15.629,63.343,34.314c13.449,17.621,19.062,40.231,15.805,63.666
		C466.402,446.592,456.281,455.145,444.678,455.145z"/>
	<path style="fill:#F8B8D8;" d="M124.324,314.835c-0.93,0-1.866-0.055-2.813-0.166c-59.067-7.009-82.868-34.866-92.434-57.001
		c-15.41-35.659-4.296-81.794,31.292-129.906c7.758-10.489,22.549-12.702,33.038-4.943c10.488,7.758,12.701,22.55,4.943,33.038
		c-24.794,33.518-34.238,63.796-25.908,83.071c4.644,10.745,17.892,24.468,54.635,28.827c12.954,1.537,22.21,13.285,20.673,26.24
		C146.326,306.004,136.124,314.835,124.324,314.835z"/>
</g>
<path style="fill:#E683B5;" d="M128.77,181.551c-24.922,24.922-46.924,21.91-62.351,6.483s-18.439-37.43,6.483-62.351
	c24.922-24.922,66.916-35.959,79.372-23.503S153.691,156.629,128.77,181.551z"/>
<path style="opacity:0.15;fill:#A95425;enable-background:new    ;" d="M128.77,181.551c-24.922,24.922-46.924,21.91-62.351,6.483
	s-18.439-37.43,6.483-62.351c24.922-24.922,66.916-35.959,79.372-23.503S153.691,156.629,128.77,181.551z"/>
<path style="fill:#E683B5;" d="M95.325,173.528c0,20.946-21.833,34.58-40.762,25.613C22.308,183.86,0,151.008,0,112.946
	C0,68.745,30.084,31.57,70.894,20.781c12.353-3.266,24.431,6.171,24.431,18.948V173.528z"/>
<path style="fill:#F8B8D8;" d="M387.676,314.835c-11.802,0-22.002-8.83-23.427-20.84c-1.538-12.955,7.719-24.703,20.673-26.24
	c36.743-4.36,49.991-18.083,54.635-28.827c8.329-19.275-1.113-49.553-25.907-83.071c-7.758-10.489-5.545-25.28,4.944-33.038
	c10.488-7.758,25.279-5.546,33.038,4.943c35.588,48.113,46.701,94.248,31.291,129.906c-9.565,22.135-33.367,49.992-92.434,57.001
	C389.544,314.78,388.605,314.835,387.676,314.835z"/>
<path style="fill:#E683B5;" d="M383.23,181.551c24.922,24.922,46.924,21.91,62.351,6.483s18.439-37.43-6.483-62.351
	c-24.922-24.922-66.916-35.959-79.372-23.503S358.309,156.629,383.23,181.551z"/>
<path style="opacity:0.15;fill:#A95425;enable-background:new    ;" d="M383.23,181.551c24.922,24.922,46.924,21.91,62.351,6.483
	s18.439-37.43-6.483-62.351c-24.922-24.922-66.916-35.959-79.372-23.503S358.309,156.629,383.23,181.551z"/>
<path style="fill:#E683B5;" d="M416.675,173.528c0,20.946,21.833,34.58,40.762,25.613C489.692,183.86,512,151.008,512,112.946
	c0-44.201-30.084-81.376-70.894-92.165c-12.353-3.266-24.431,6.171-24.431,18.948L416.675,173.528L416.675,173.528z"/>
<g>
	<path style="opacity:0.15;fill:#A95425;enable-background:new    ;" d="M127.078,267.755c-17.78-2.11-30.047-6.415-38.511-11.511
		c-8.208,13.437-14.324,28.282-17.902,44.081c13.075,6.639,29.688,11.833,50.845,14.344c0.947,0.112,1.883,0.166,2.813,0.166
		c11.801,0,22.002-8.831,23.427-20.84C149.288,281.04,140.032,269.292,127.078,267.755z"/>
	<path style="opacity:0.15;fill:#A95425;enable-background:new    ;" d="M194.896,393.134c10.376-7.908,12.375-22.73,4.468-33.105
		c-7.907-10.374-22.728-12.377-33.105-4.468c-20.488,15.616-34.07,36.684-39.798,60.133c4.989,1.695,10.185,2.951,15.547,3.718
		c10.412,1.488,20.883,2.753,31.383,3.833C177.065,411.561,184.337,401.182,194.896,393.134z"/>
	<path style="opacity:0.15;fill:#A95425;enable-background:new    ;" d="M149.562,357.184
		c-1.676-12.937-13.523-22.071-26.459-20.391c-20.36,2.637-38.304,10.417-52.005,22.3c4.982,15.679,14.31,29.581,26.636,40.16
		c6.687-8.411,17.532-13.808,31.436-15.609C142.108,381.968,151.238,370.121,149.562,357.184z"/>
	<path style="opacity:0.15;fill:#A95425;enable-background:new    ;" d="M384.922,267.755c17.78-2.11,30.047-6.415,38.511-11.511
		c8.208,13.437,14.324,28.282,17.902,44.081c-13.075,6.639-29.688,11.833-50.845,14.344c-0.947,0.112-1.883,0.166-2.813,0.166
		c-11.801,0-22.002-8.831-23.427-20.84C362.712,281.04,371.968,269.292,384.922,267.755z"/>
	<path style="opacity:0.15;fill:#A95425;enable-background:new    ;" d="M317.104,393.134c-10.376-7.908-12.375-22.73-4.468-33.105
		c7.907-10.374,22.728-12.377,33.105-4.468c20.488,15.616,34.07,36.684,39.798,60.133c-4.989,1.695-10.185,2.951-15.547,3.718
		c-10.412,1.488-20.883,2.753-31.383,3.833C334.935,411.561,327.663,401.182,317.104,393.134z"/>
	<path style="opacity:0.15;fill:#A95425;enable-background:new    ;" d="M362.438,357.184c1.676-12.937,13.523-22.071,26.459-20.391
		c20.36,2.637,38.304,10.417,52.005,22.3c-4.982,15.679-14.31,29.581-26.636,40.16c-6.687-8.411-17.532-13.808-31.436-15.609
		C369.892,381.968,360.762,370.121,362.438,357.184z"/>
</g>
<path style="fill:#E683B5;" d="M366.953,398.154L366.953,398.154c-73.594,10.521-148.311,10.521-221.905,0l0,0
	c-32.448-4.639-56.549-32.43-56.549-65.208l0,0c0-69.647,56.46-126.106,126.106-126.106h82.79
	c69.647,0,126.106,56.46,126.106,126.106l0,0C423.501,365.724,399.401,393.515,366.953,398.154z"/>
<g>
	<ellipse style="fill:#FFFFFF;" cx="174.09" cy="304.17" rx="30.22" ry="24.07"/>
	<ellipse style="fill:#FFFFFF;" cx="337.91" cy="304.17" rx="30.22" ry="24.07"/>
</g>
<g>
	<path style="fill:#495059;" d="M179.146,283.252c-4.143,0-7.5-3.358-7.5-7.5V262.78c0-4.142,3.357-7.5,7.5-7.5s7.5,3.358,7.5,7.5
		v12.972C186.646,279.895,183.289,283.252,179.146,283.252z"/>
	<path style="fill:#495059;" d="M256,307.574L256,307.574c-12.093,0-21.896-9.803-21.896-21.896V269.76
		c0-3.301,2.676-5.977,5.977-5.977h31.837c3.301,0,5.977,2.676,5.977,5.977v15.919C277.896,297.771,268.093,307.574,256,307.574z"/>
	<path style="fill:#495059;" d="M332.853,283.252c-4.143,0-7.5-3.358-7.5-7.5V262.78c0-4.142,3.357-7.5,7.5-7.5s7.5,3.358,7.5,7.5
		v12.972C340.353,279.895,336.996,283.252,332.853,283.252z"/>
</g>
<path style="fill:#FFB9DC;" d="M185.21,402.831c47.097,4.27,94.483,4.27,141.58,0c-8.509-24.557-36.965-42.613-70.79-42.613
	C222.175,360.219,193.719,378.274,185.21,402.831z"/>
<path style="opacity:0.15;fill:#A95425;enable-background:new    ;" d="M170.584,214.752
	c-47.936,17.862-82.086,64.034-82.086,118.194l0,0c0,32.779,24.101,60.57,56.549,65.209l0,0
	c70.062,10.016,141.138,10.475,211.298,1.42C145.048,398.154,134.332,270.872,170.584,214.752z"/>
<g>
</g>
<g>
</g>
<g>
</g>
<g>
</g>
<g>
</g>
<g>
</g>
<g>
</g>
<g>
</g>
<g>
</g>
<g>
</g>
<g>
</g>
<g>
</g>
<g>
</g>
<g>
</g>
<g>
</g>
</svg>
