<?xml version="1.0" encoding="iso-8859-1"?>
<!-- Generator: Adobe Illustrator 19.0.0, SVG Export Plug-In . SVG Version: 6.00 Build 0)  -->
<svg version="1.1" id="Capa_1" xmlns="http://www.w3.org/2000/svg" xmlns:xlink="http://www.w3.org/1999/xlink" x="0px" y="0px"
	 viewBox="0 0 512 512" style="enable-background:new 0 0 512 512;" xml:space="preserve">
<path style="fill:#F8E686;" d="M505.773,275.873c-15.089-10.793-39.502-27.392-71.47-46.288c-6.593-3.897-9.09-12.167-5.794-19.08
	c18.676-39.181,29.548-76.417,35.066-98.797c2.564-10.399-6.332-20.027-16.898-18.273c-18.311,3.039-47.322,8.561-83.316,17.813
	c-7.407,1.904-15.001-2.213-17.557-9.422c-14.493-40.887-33.123-74.888-45.045-94.614c-5.543-9.171-18.652-9.7-24.886-0.985
	c-10.793,15.089-27.393,39.502-46.288,71.47c-3.897,6.593-12.167,9.09-19.081,5.794c-39.18-18.675-76.415-29.548-98.795-35.066
	c-10.399-2.564-20.028,6.331-18.274,16.897c3.039,18.311,8.561,47.322,17.813,83.316c1.904,7.407-2.213,15.001-9.422,17.557
	c-40.887,14.493-74.888,33.123-94.614,45.045c-9.171,5.543-9.7,18.652-0.985,24.886c15.089,10.793,39.502,27.392,71.47,46.288
	c6.593,3.897,9.09,12.167,5.794,19.08c-18.676,39.181-29.548,76.417-35.066,98.797c-2.564,10.399,6.332,20.026,16.898,18.273
	c18.311-3.039,47.322-8.561,83.316-17.813c7.407-1.904,15.001,2.213,17.557,9.422c14.493,40.887,33.123,74.888,45.045,94.614
	c5.543,9.171,18.652,9.7,24.886,0.984c10.793-15.089,27.392-39.502,46.288-71.47c3.897-6.593,12.167-9.09,19.081-5.794
	c39.18,18.675,76.415,29.548,98.795,35.066c10.399,2.564,20.028-6.331,18.274-16.897c-3.039-18.31-8.561-47.322-17.813-83.316
	c-1.904-7.407,2.213-15.001,9.422-17.557c40.887-14.493,74.888-33.123,94.614-45.045
	C513.959,295.217,514.488,282.108,505.773,275.873z"/>
<circle style="fill:#F5C07E;" cx="256" cy="256" r="142.1"/>
<g>
	<ellipse style="fill:#E683B5;" cx="194.47" cy="276.06" rx="22.704" ry="18.08"/>
	<ellipse style="fill:#E683B5;" cx="317.53" cy="276.06" rx="22.704" ry="18.08"/>
</g>
<path style="fill:#495059;" d="M256,271.679c-7.048,0-13.751-3.052-18.388-8.374c-2.721-3.123-2.396-7.86,0.727-10.582
	c3.122-2.721,7.86-2.396,10.582,0.727c1.788,2.052,4.369,3.229,7.08,3.229s5.292-1.177,7.08-3.229
	c2.722-3.123,7.459-3.447,10.582-0.727c3.123,2.722,3.448,7.459,0.727,10.582C269.75,268.626,263.048,271.679,256,271.679z"/>
<path style="opacity:0.15;fill:#A95425;enable-background:new    ;" d="M210.825,121.233
	c-56.334,18.876-96.928,72.079-96.928,134.767c0,78.481,63.622,142.103,142.103,142.103c47.185,0,88.991-23.004,114.836-58.402
	C160.454,366.037,158.217,188.781,210.825,121.233z"/>
<path style="fill:#495059;" d="M147.451,227.187l3.081,22.583c1.58,11.581,11.472,20.215,23.16,20.215h28.044
	c11.849,0,21.824-8.867,23.214-20.634l2.003-16.971c0.365-3.09,2.985-5.419,6.097-5.419h45.9c3.112,0,5.732,2.329,6.096,5.419
	l2.003,16.971c1.389,11.768,11.364,20.634,23.214,20.634h28.044c11.688,0,21.58-8.634,23.16-20.215l3.081-22.583
	c1.705-12.496-8.008-23.624-20.619-23.624H168.07C155.459,203.563,145.746,214.691,147.451,227.187z"/>
<g>
</g>
<g>
</g>
<g>
</g>
<g>
</g>
<g>
</g>
<g>
</g>
<g>
</g>
<g>
</g>
<g>
</g>
<g>
</g>
<g>
</g>
<g>
</g>
<g>
</g>
<g>
</g>
<g>
</g>
</svg>
